<?xml version="1.0" encoding="UTF-8"?>
<svg id="Layer_2" data-name="Layer 2" xmlns="http://www.w3.org/2000/svg" viewBox="0 0 26.65 33.56">
  <defs>
    <style>
      .cls-1 {
        fill: #fff;
      }

      .cls-2 {
        opacity: .6;
      }

      .cls-3 {
        fill: none;
        stroke: #000;
        stroke-miterlimit: 10;
        stroke-width: 2.1px;
      }
    </style>
  </defs>
  <g id="Navigation">
    <g id="back">
      <g id="fill" class="cls-2">
        <path class="cls-1" d="M23.5,32.51c-.39,0-.79-.11-1.14-.34L2.16,19.05c-.68-.44-1.09-1.2-1.11-2.04-.01-.84.38-1.61,1.05-2.07L21.71,1.42c.95-.66,2.26-.42,2.92.54s.42,2.26-.54,2.92L6.59,16.93l18.06,11.73c.97.63,1.25,1.93.62,2.9-.4.62-1.07.95-1.76.95ZM4.43,15.53h0s0,0,0,0Z"/>
      </g>
      <g id="outline">
        <path class="cls-3" d="M23.5,32.51c-.39,0-.79-.11-1.14-.34L2.16,19.05c-.68-.44-1.09-1.2-1.11-2.04-.01-.84.38-1.61,1.05-2.07L21.71,1.42c.95-.66,2.26-.42,2.92.54s.42,2.26-.54,2.92L6.59,16.93l18.06,11.73c.97.63,1.25,1.93.62,2.9-.4.62-1.07.95-1.76.95ZM4.43,15.53h0s0,0,0,0Z"/>
      </g>
    </g>
  </g>
</svg>