<?xml version="1.0" encoding="UTF-8"?>
<svg id="Layer_2" data-name="Layer 2" xmlns="http://www.w3.org/2000/svg" viewBox="0 0 1920 1920.09">
  <defs>
    <style>
      .cls-1 {
        fill: #fffffd;
      }

      .cls-2 {
        fill: #fafafa;
      }
    </style>
  </defs>
  <g id="Under_construction" data-name="Under construction">
    <g id="background_construction" data-name="background construction">
      <rect id="skyline" class="cls-2" y=".1" width="1919.99" height="1919.99"/>
      <g id="sky">
        <path class="cls-1" d="M0,1363.22V.1s1919.99-.1,1919.99-.1l-.05,1173.76-59.2-.58-.38-53.77-49.23.02-.87-45.78-53.6,10.02c-3.59.67-10.66.8-10.75,5.69l-.6,30.16-9.31-.28-.69-27.86c-.09-3.56-11.2-3.76-11.35,0l-1.11,27.79c-.97-.04-7.23-.08-7.23,2.7l-.06,346.52c-2.25,2.58-9.98,2.2-12.9-.98l-.48-291.22c-.82-2.54-10.47-1.76-10.49,1.46l-.46,77.87-30.75-.43c-1.72-1.12-1.04-6.11-.89-8.33s-3.72-3.1-6.17-2.35l-.23-265.54-.3-136.88.96-14.86,6.25-.39c6.13-.39,2.96-12.02-7.47-22.78l-.11-70.62,149.51-.11.33,29.31c.01,1.26,2.44,3.48,1.39,6.23l46.9.53c.8,0,3.16-2.28,3.24-2.96l.39-33.09,48.98-.1.05-30-7.78-4.3c1.2-2.3.64-10.05-2.22-10.14l-35.34-1.2c-1.23,1.31-3.78,4.62-5.04,3.91l-215.3-121.85c-3.18-2.91-3.51-9.24-9.42-9.41-6.29-.19-9.27,1.99-13.37,7.14l-454.09,118.19-106.37,1.56-41.78,34.76c-2.05,1.71-2.94,3.74-3.68,4.92s.07,6.12,2.2,6.12l192.65.47c-.77,5.11-.72,8.89.76,11.1,1.16,1.73,5.48,2.03,9.6,1.46l.08,129.86c-5.31,6.42-3.66,15.38-.81,22.01-1.05,7.1,4.72,7.95,8.07,10.68,1.36,2.84.16,9.51,5.32,11.95.97,2.37-1.09,4.86-3.05,3.14l-1.33-3.87c-.51-1.49-3.59-1.9-4.64-1-1.29,1.1-1.36,3.49-1.16,5.76.47,5.44,4.5,7.76,8.64,8.15,4.87.45,8.89-2,11.2-6.37,4.21-7.95-3.88-12.21-4.24-17.6-.07-1.07,2.68-1.44,3.95-3.18,4.13-5.69,7.11-18.45,4.31-24.71-3.28-7.31-1.79-12.46-1.76-20.19l.46-114.16c3.71-.12,6.68-.84,8.03-2.81,1.47-2.15,1.9-4.97,1.09-10.39l340.29-.12c-21.69,24.69-17.23,31.99-10.77,59.42,1.79,7.59,13.38,3.27,19.88,5.22,8.14,2.44-10.93,14.62-10.03,27.99,2.72,1.87,6.12,1.16,10.01,1.73l.09,503.64-43.03.11c-1.09-2.72-1.04-8.46.86-9.92l25.7-.66-.53-13.71-5.31-.27.5-24.55c4.05.64,7.2-2.82,6.23-4.38-1.66-2.67-.95-4.01-.93-5.52.03-2.51-2.27-3.77-5.44-3.68l.08-24.26c1.76-.48,4.93-.93,4.97-2.16l.22-8.3c.08-2.86-1.1-4.69-5.16-3.81l.07-25.01c1.43-.38,4.46-.41,5.43-1.21,1.24-1.02-.07-3.53-.19-5.52l-.27-4.71c-.07-1.22-3.33-1.75-5.13-2.06l.07-24c4.6-1.35,5.26-3.29,5.59-7.62.39-5.11-2.19-6.48-5.56-8.47v-23.22c1.37-.62,4.33-1.09,5.09-1.97,1.34-1.55,1.42-3.78,1.38-6.85l-.09-6.19c-.02-1.5-2.89-2.73-5.49-2.74l-22.21-.03-.93-52.24-31.17-.68-1.65-43.65-48.54-.79-.72-48.74c-2.47-2.05-10.2-1.32-10.24,1.44l-.61,47.09-67.55.2-.65-33.98-34.82-.82-.51-100.39c-.01-2.16-3.4-2.59-4.52-2.5-1.57.12-4.64.97-4.65,4.17l-.44,98.38-17.27.79-1.1,33.99-17.74.75-.43,43.69-32.06,1.03-.26,207.45-14.8.91c-2.27.14-3.89,6.51-3.89,9.38l.14,199.34c-3.34.76-7.85.89-13.28.29l-.44-299.6c-1.69-2.95-9.53-2.16-12.48-1.57l-.8-14.81-24.16-34.5-42.01.59c-4.07,2.05-7.46,7.64-9.64,11.11l-15.19,24.1-.5,12.93-12.61.97-.64,73.4-53.98.29.04-18.49c4.22-.12,8.64,1.06,12.5-.71,2.99-1.37,2.75-8.16,1.38-10.51-2.12-3.64-6.99-4.9-13.32-2.75-1.24-6.99-1.28-13.96-.24-20.32,4.86.46,8.69.6,10.86-.37,2.79-1.25,3.47-6.26,2.18-11.19-3.67-1.51-8.17-1.34-13.42-1.51l-.06-19.77,12.65-1.06c3.18-.27,2.99-10.29.22-11.38-4.05-1.6-8.47-1.1-13.12-1.13l-.35-20.53,13.11-.52c2.62-3,1.78-8.55.68-12.42l-13.76.07.28-26.47,14.55-.92.02-22.93-33.56-.59-.35-102.57-.85-150.71c-6.47-2.05-13.03-1.6-20.17-.61l-.26,62.61-23.13-.16-.64-16.24c-.13-3.27-9.41-3.36-9.55,0l-.69,16.34-27.42.77-.72,20.26c-.05,1.35,1.25,2.12,1.66,2.58,2.05,2.25-9.96,4.43-23.83,2.1l-.19-128.58c-6.84-2.62-14.34-2.47-20.45-.27l-.42,129.63h-108.67s-.48-130.26-.48-130.26c-7.57-1.2-14.17-1.22-21.01.02-1.27,18.66-1.33,35.41-.71,52.74l-41.61,34.78-41.5-34.02-.39-53.49c-7.14-1.13-13.71-1.81-19.96.91v288.33s-9.65,4.37-9.65,4.37l1.34,61.87c.24,11.09-.07,21.39-.15,32.52l-.65,94.34c-4.84.57-8.78.73-13.42-.08l-.07-218.63c-3.42-3.09-10.11-2.94-13.36-.55l.3,75.1-30.06.21-.69-44.87c-1.73-3.22-9.98-2.57-15.36-1.21l-.7-57.63-41.09.99.54,68.03c.04,5.18,2.44,9.31-.02,15.19l-.62,19.37-32.46.02-.48-46.15-.05-29.44c-4.4-1.66-9.77-1.99-13.7.68-.97,9.1,1.91,19.39-.93,28.31-4.12,8.45-14.81,13.28-21.81,21.03-24.61-18.45-23.95-19.69-22.68-49.31-4.05-2.77-9.29-2.47-13.74-.63l-.45,51.4.08,32.34.29,82.95c.06,17.89,1.09,35.54-.67,53.13-1.97-.18-4.28-.38-5.08-.04-.84.36-1.42,1.93-1.41,3.9l.29,56.18c-4.54,2.37-9.46,1.87-15.16,1.67l-1.16,101.74-3.68-.85-.18-131.35-30.44-.99.16-365.41c6.81-.2,16.17-1.46,22.02.8,1.47,2.97,3.05,7.34,8.32,8.52l-1.13,76.12c-.13,8.77-2.64,17.33,6.94,23.84-4.64,2.17-5.39,5.31-3.38,8.53,2.45,3.93,6.62,4.54,9.66,2,3.63-3.02,4.16-7.56-.09-11.61,3.81-6.6,6.93-12.88,3.59-20.43l-.63-77.29c2.82-2.55,8.27-4.9,7.52-10.63l121.91-.72c-8.58-13.74-20.72-19.53-30.87-29.42l-70.45-.18-73.51-20.47-.21-256.8,12.5-1.23c4.13-14.39-16.54-20.48-12.03-33.93,5.84-.46,11.01-.53,16.82.04,5.63.55,9.72-4.21,9.93-9.91.39-10.78,5.94-22.7,3.85-32.91l-15.83-31.08,423.26-.04.68,10.94c3.03,3.4,6.87,2.2,10.99,3.09l-.61,152.55c0-1.78-6.95,12.37,3.33,33.62,2.26,1.51,7.41.59,7.57,5.93.2,6.94,8.4,9.63,5.99,13.73-3.13,5.32-4.08-4.83-7.82-5.82-1.86-.5-4.75.9-4.96,3.48-.59,7.28,2.6,11.92,8.49,13.88,5.31,1.77,10.42-.12,13.86-4.26,3.79-4.56,4.31-11.51-.68-15.56-2.48-2.02-3.85-3.68-4.12-6.03-.41-3.71,3.52-4.7,5.7-5.79,5.9-9.83,4.12-21.57,4.04-31.84l-1.31-154.67c4.11.16,8.39,1.24,10.77-1.57,1.81-2.13.24-7.87,1.54-11.59l229.47-.6c3.94-.52,1.87-9.21-.42-11.13l-51.05-42.79-130.48-.22-245.37-62.51-314.08-79.19c-3.45-5-7.22-8.33-12.48-8.4-6.47-.1-10.29,3.92-11.92,10.87L98.64,453.24c-1.25-.68-1.47-2.85-3.36-4.92l-42.51.08c-3.26,3.94-1.37,9.96-2.34,14.68-2.73-.21-9.06-.72-9.02,3.64l.33,33.73,58.06.24c-.02,14.19-1.29,27.23,1.12,41.65l56.58-.32c3.84-.67,3.66-8.56,3.65-11.43l-.07-29.77,174.35-.27c1.86,0,6.72.92,7.84,2.53l-.54,81.35c-5.55,5.81-14.67,13.07-10.11,23.01.84,1.82,5.62,2.33,9.94,1.44l.27,157.87c.05,28.49.93,55.29-.69,83.01l-147.32-37.44c-3.08-.78-4.77-5.43-8.24-5.1-2.86.27-3.99,5.24-6.75,6.79l-132.87,74.57c-1.37.77-2.41,1.67-2.89,2.21-.45.5-1.95-2.4-2.75-2.39l-22.51.3c-.11,3.32-.9,6.13-4.08,7.93-4.5,2.55-5.6,16.37-1.1,19.25l28.88,1.7,1.3,21.3,32.39.03.68-21.73h91.38c2.2,0,2.88,5.66,3.25,6.6l-.84,32.23c1.16,6.48-6.33,7.68-6.04,14.28.08,1.67.83,5.29,5.96,4.41l.08,331.49-9.8,1.13c.04,22.17,1.23,43.65-.44,65.96-5.33,1.12-10,1.28-15.75-.02l-.04-156.16-19.57-.36.08-52.15c0-2.32-1.33-3.39-2.42-3.93-.93-.47-4.16.53-4.17,2.3l-.18,53.29c-2.76.86-4.7.33-5.8-.38-4.55-2.95.76-13.03-5.01-13.01-6.34.03-12.76-.04-18.69-1.12-1.09,2.11-2.86,1.89-3.61,2.15-2.51.88.47,7.98-1.78,11.02-.98,1.33-2.14,1.97-4.71,1.99l-50.56.42-.32,144.81L0,1363.22Z"/>
        <path class="cls-1" d="M223.14,1306.5l-17.14.22-1.19-24.47.02-293.85,1.39-13.19c1.39-.22,4.5-.32,5.05-1.53.74-1.62.87-3.25-.36-5.05l-6.69-9.85c3.84-2.65,7.03-2.69,12.22-1.89,4-8.18,5.71-17.5,4.82-26.31-2.65-4.13-5-6.96-6.18-13.4l127.65-.5-.02,362.96c0,2.46-.47,3.03-1.26,4.25,1.51-2.34-15.65,2.28-27.75-.46-1.7-16.2,1.17-31.63.8-47.77l-.74-32.2-48.97,24.98-41.74,21.29.09,56.77Z"/>
        <polygon class="cls-1" points="1601.87 720.09 1566.35 686.35 1346.96 685.85 1617.52 576.37 1601.87 720.09"/>
        <path class="cls-1" d="M1796.29,700.89l-112.81,1.01c-11.51,2.35-20.33,13.83-31.89,18.92l-15-128.2c-.47-4.06-3.05-7.84.76-11.76l113.25,85.18,45.68,34.85Z"/>
        <polygon class="cls-1" points="1687.56 1267.8 1675.35 1282.41 1664.26 1267.39 1687.56 1267.8"/>
        <polygon class="cls-1" points="1687.94 1310.77 1664.29 1310.77 1675.4 1295.39 1687.94 1310.77"/>
        <path class="cls-1" d="M1687.21,1322.34l-11.36,11.52c-5.01-3.22-8.48-6.71-11.81-11.85l23.17.33Z"/>
        <polygon class="cls-1" points="1690.55 1355.46 1680.96 1342.39 1691.1 1330.58 1690.55 1355.46"/>
        <path class="cls-1" d="M1670.4,1289.03l-9.39,11.3-.6-22.22c5.53,3.24,7.45,7.54,9.99,10.91Z"/>
        <path class="cls-1" d="M1690.59,1462.35l-9.45-12.72,10.1-12.3c.35,8.98,1.09,15.08-.65,25.02Z"/>
        <polygon class="cls-1" points="1690.51 1301.47 1681.38 1289.37 1690.87 1276.23 1690.51 1301.47"/>
        <path class="cls-1" d="M1690.99,1408.49c-4.42-4.28-6.79-7.99-10.21-13.64l10.1-11.72.11,25.36Z"/>
        <path class="cls-1" d="M1686.09,1428.06c-2.53,5.19-4.14,7.46-8.41,11.47-1.42-4.87-1.21-8.45.05-12.78l8.36,1.31Z"/>
        <path class="cls-1" d="M1685.87,1362.6c-2.43,2.87-6.41,2.87-7.94,1.41-1.8-1.72-2.07-6.65-.6-10.43,3.98,1.55,5.58,6.05,8.54,9.02Z"/>
        <path class="cls-1" d="M1684.82,1416.32c-.18,2.1-6.98,1.8-7.64-.48-.74-2.54-1.43-6.79,1.59-9.52,1.68,2.86,6.13,5.53,6.05,10Z"/>
        <path class="cls-1" d="M1686.03,1376.94l-6.9,8.68c-2.82-1.62-2.87-4.94-2.35-8.22.55-3.45,5.36-4.75,9.25-.45Z"/>
        <path class="cls-1" d="M1683.35,1468.02c.04,2.49-5.43,2.65-6.27.34-1.07-2.94-.54-6.63,1.97-7.75,1.84,1.98,4.22,3.4,4.29,7.41Z"/>
        <polygon class="cls-1" points="1385.88 661.84 1323.8 686.54 1193.55 685.46 1564.27 588.76 1385.88 661.84"/>
        <path class="cls-1" d="M1806.98,699.3l-130.66-97.88-3.12-1.42c-1.01-.46-.38-1.71.24-1.92,2.18-.74,2.52,1.28,3.31,1.73l173.88,98.48-43.65,1.01Z"/>
        <path class="cls-1" d="M1221.12,871.83l-.19-125.15,10.6-1.38-.26,126.24c-.29,2.22-8.47,2.5-10.15.29Z"/>
        <path class="cls-1" d="M1612.45,765.15l-32.07-.19c2.29-8.56,6.07-14.75,9.89-22.35l22.03-.2.15,22.74Z"/>
        <path class="cls-1" d="M1634.34,675.17l-14.03-13.94,12-12.72c1.56,8.21,3.65,15.12,2.03,26.66Z"/>
        <path class="cls-1" d="M1633.2,686.04l-16.86.57c.24-6.01.44-9.9,2.14-15.45l14.72,14.88Z"/>
        <path class="cls-1" d="M1634.95,934.21c-7.35,2.17-12.83,2.2-18.97-.5l9.51-9.09c4.06,2.29,6.69,4.83,9.46,9.59Z"/>
        <path class="cls-1" d="M1635,854.8c-6.34,2.03-12.57,2.34-18.81.11,2.49-3.17,5.67-7.76,9.6-8.23,3.42-.04,6.9,5.17,9.21,8.12Z"/>
        <path class="cls-1" d="M1634.98,894.71c-6.3,1.63-12.42,2.15-19.28-.17l10.64-9.27,8.64,9.43Z"/>
        <path class="cls-1" d="M1634.83,1051.93c-5.96,2.65-12.43,2.91-19-.08l10.36-9.05,8.64,9.13Z"/>
        <path class="cls-1" d="M1641.84,1323.88c-4.58-1.79-6.76-5.71-10.26-8.8l10.58-10.3-.32,19.1Z"/>
        <path class="cls-1" d="M1634.89,973.31c-6.08,2-12.48,2.42-19.04-.23l10.4-8.92,8.64,9.15Z"/>
        <path class="cls-1" d="M1619.86,1076.95l-9.43,9.03c-2.36-6.89-1.14-12.19-1.27-19.35l10.71,10.32Z"/>
        <path class="cls-1" d="M1641.43,1164.16c-4.44-1.48-6.48-4.69-9.97-8.14l10.53-10.42-.56,18.56Z"/>
        <path class="cls-1" d="M1634.91,1012.41c-5.96,2.49-12.79,2.71-18.83.03,2.5-2.89,5.99-6.9,9.43-6.97,3.6-.07,7.24,3.99,9.4,6.94Z"/>
        <path class="cls-1" d="M1641.48,888.62c-4.32-1.71-6.24-5.19-9.88-8.17l10.42-10.57-.54,18.74Z"/>
        <path class="cls-1" d="M1619.95,1116.5l-10.96,9.4-.33-18.31c4.96,1.96,6.14,4.28,11.29,8.92Z"/>
        <path class="cls-1" d="M1619.8,1315.01l-9.29,9.24c-2.95-6.93-1.92-13.36-1.24-19.33l10.53,10.09Z"/>
        <path class="cls-1" d="M1619.76,958.67l-9.19,9.1c-2.41-5.68-1.9-11.06-1.42-18.52,4.06,2.02,6.62,5.54,10.61,9.42Z"/>
        <path class="cls-1" d="M1635.17,1091.69c-7.23,1.48-11.97,1.17-18.72.03,2.08-4.23,5.57-5.33,9.46-8.63,3.68,2.33,6.33,4.17,9.26,8.6Z"/>
        <path class="cls-1" d="M1635.59,1220.14c-3.38,4.54-5.92,5.65-10.12,8.68l-9.7-8.09c6.53-2.52,11.84-2.45,19.82-.59Z"/>
        <path class="cls-1" d="M1617.84,840.34c1.04,2.63-5.03,8.21-7.91,8.6-1.71-6.54-.95-11.98-.68-18.32,2.55,2.71,6.42,4.27,8.58,9.73Z"/>
        <path class="cls-1" d="M1619.91,1037.76l-9.19,8.86c-2.73-5.91-2.66-11.74-.1-17.5l9.29,8.65Z"/>
        <path class="cls-1" d="M1634.96,983.95c-2.3,3.93-5.83,5.35-9.51,8.54l-9.68-7.95c6.17-2.64,12.22-2.77,19.19-.59Z"/>
        <path class="cls-1" d="M1619.85,998.44l-9.27,8.78c-2.63-5.88-2.6-11.66-.05-17.58l9.32,8.8Z"/>
        <path class="cls-1" d="M1641.11,1007.15l-9.6-8.57,9.07-8.94c2.55,5.79,2.3,10.67.52,17.51Z"/>
        <path class="cls-1" d="M1640.89,1085.98l-9.53-9.08,9.15-8.71c2.43,6.04,2.5,10.64.38,17.79Z"/>
        <path class="cls-1" d="M1640.98,1046.67l-9.84-8.84,9.36-8.92c2.36,6,2.53,10.56.48,17.76Z"/>
        <path class="cls-1" d="M1619.98,1195.36l-9.26,8.77c-2.69-5.65-2.75-10.7-.64-17.21l9.9,8.44Z"/>
        <path class="cls-1" d="M1641.01,1203.96l-9.44-8.6,8.92-8.91c2.69,5.91,2.73,10.63.52,17.51Z"/>
        <path class="cls-1" d="M1640.89,1243.6l-9.84-9.1,9.47-8.86c2.48,6.08,2.43,10.71.37,17.96Z"/>
        <path class="cls-1" d="M1641.59,1284.68l-9.77-9.25,9.9-10.78c.91,6.1.72,10.83-.14,20.02Z"/>
        <path class="cls-1" d="M1635.78,904.98l-10.14,8.45c-3.66-3.65-7.19-4.88-9.93-9.4,7.27-.16,11.96-.92,20.08.95Z"/>
        <path class="cls-1" d="M1619.66,1155.78l-9.03,8.82c-2.76-5.76-2.73-11.6-.07-17.35l9.1,8.53Z"/>
        <path class="cls-1" d="M1640.91,1125.36l-9.37-8.72,8.96-8.89c2.57,5.82,2.58,10.5.41,17.61Z"/>
        <path class="cls-1" d="M1619.74,919.4l-9.19,8.88c-2.54-5.7-2.5-11.47-.1-17.51l9.29,8.63Z"/>
        <path class="cls-1" d="M1641.19,928.43l-9.63-8.63,8.96-9.1c2.72,6.07,2.3,10.89.67,17.73Z"/>
        <path class="cls-1" d="M1619.85,880.33l-8.9,8.39c-3.07-5.31-2.9-11.39-.26-17.14l9.17,8.75Z"/>
        <polygon class="cls-1" points="1636.43 865.03 1625.62 874.54 1615.41 864.48 1636.43 865.03"/>
        <path class="cls-1" d="M1640.83,967.98l-9.89-8.78,9.76-9.28c2.11,6.26,2.21,10.71.13,18.06Z"/>
        <path class="cls-1" d="M1635.57,1171.53c-7.98.42-13.66.89-20.1-.39l10.24-9.41,9.87,9.8Z"/>
        <polygon class="cls-1" points="1635.79 1022.11 1625.2 1032.16 1615.76 1022.48 1635.79 1022.11"/>
        <path class="cls-1" d="M1635.01,1209.32c-6.36,2.72-12.02,1.6-18.75,1.25,2.33-2.78,5.52-7.13,9.58-8.56,2.5.91,6.21,4.31,9.17,7.31Z"/>
        <polygon class="cls-1" points="1635.54 1101.41 1625.82 1111 1615.54 1100.95 1635.54 1101.41"/>
        <path class="cls-1" d="M1635.39,1329.45c-6.2,2.21-11.06,1.29-17.64,1.1,1.23-4.23,4.27-6.39,7.71-9.39,3.93,2.73,6.87,4.63,9.93,8.29Z"/>
        <path class="cls-1" d="M1633.53,1131.27c-6.02,1.54-10.91,1.38-18.14.72l9.82-9.84c3.34,2.87,5.36,3.45,8.32,9.12Z"/>
        <polygon class="cls-1" points="1619.41 1275.24 1608.92 1284.88 1608.8 1265.06 1619.41 1275.24"/>
        <path class="cls-1" d="M1635.37,943.83l-9.82,9.16-9.95-9.54c7.01-.55,10.99-1.08,19.77.38Z"/>
        <polygon class="cls-1" points="1634.9 1290.17 1616.13 1289.85 1625.94 1280.21 1634.9 1290.17"/>
        <polygon class="cls-1" points="1635.26 1140.84 1625.78 1150.37 1615.93 1141.38 1635.26 1140.84"/>
        <path class="cls-1" d="M1618.8,1235.31c-2.62,3.44-4.64,5.91-9.36,8.59-1.26-6.2-.82-11.03-.53-18.51,4.1,2.58,5.31,5.17,9.89,9.92Z"/>
        <polygon class="cls-1" points="1635.83 1250.47 1615.44 1250.49 1625.97 1240.66 1635.83 1250.47"/>
        <polygon class="cls-1" points="1641.61 849.68 1632.34 840.04 1642.1 830.04 1641.61 849.68"/>
        <path class="cls-1" d="M1634.98,1260.75l-9.47,8.49-9.68-8.94c6.65-1.09,11.14-1.92,19.15.44Z"/>
        <path class="cls-1" d="M1630.79,638.41l-9.62,10.7c-.95-7.88.46-12.92,2.57-19.34,3.51,2.61,4.41,5.12,7.05,8.65Z"/>
        <polygon class="cls-1" points="1635.38 1300.09 1625.83 1309.48 1615.71 1299.6 1635.38 1300.09"/>
        <path class="cls-1" d="M1633.28,1180.48c-.78,3.73-4.15,5.78-7.56,9.08l-9.37-8.2c6.14-2.38,9.68-1.95,16.93-.88Z"/>
        <path class="cls-1" d="M1635.98,723.09l-15.86-.41c.86-3.34,3.41-5.8,6.5-8.03,2.76-.36,6.15,3.66,9.36,8.44Z"/>
        <path class="cls-1" d="M1633.02,1061.98c-1.06,4.46-4.02,6.28-7.16,9.08-4.29-3.34-7.08-5.57-9.88-9.45l17.04.37Z"/>
        <path class="cls-1" d="M1632.71,694.8c.77,2.16-3.45,6.38-6.11,6.46-2.32.07-6.4-3.73-6.3-6.27,4.23-.88,6.5-1.25,12.41-.19Z"/>
        <path class="cls-1" d="M1633.58,827.63l-8,7.46-7.83-7.8c5.38-.85,8.29-1.31,15.83.34Z"/>
        <path class="cls-1" d="M1616.04,714.91c-1.88,2.03-3.43-.72-3.21-2l1.53-8.89c.86-2.11,4.28.68,4.92,2.53.9,2.63-.02,4.88-3.23,8.35Z"/>
        <polygon class="cls-1" points="1051.75 723.54 1023.57 723.27 1051.37 699.28 1051.75 723.54"/>
        <path class="cls-1" d="M1592.53,722.15c-9.33,2.86-15.25,1.2-23.44,1.54l1.48-22.77,21.96,21.22Z"/>
        <path class="cls-1" d="M1105.08,709.48c-3.22,2.57-5.13,5.19-7.94,9.06-2.42-6.26-2.14-11.4-.25-17.56l8.19,8.5Z"/>
        <polygon class="cls-1" points="1677.74 722.78 1663.02 722.96 1678.11 712.52 1677.74 722.78"/>
        <path class="cls-1" d="M1359.85,709.81c-4.2,3.12-5.08,5.42-7.73,8.81-2.79-6.14-2.65-11.75.01-17.86,3.03,3.74,4.48,6.6,7.72,9.05Z"/>
        <path class="cls-1" d="M1432.82,708.5c-2.39,3.48-3.98,6.25-8.48,8.31l-.05-15.25c3.62,1.19,4.86,3.32,8.52,6.94Z"/>
        <polygon class="cls-1" points="1410.42 723.31 1393.16 723.14 1401.63 714.25 1410.42 723.31"/>
        <polygon class="cls-1" points="1118.58 696.56 1111.09 704.72 1102.91 696.4 1118.58 696.56"/>
        <polygon class="cls-1" points="1323.54 709.45 1314.48 718.68 1314.87 700.96 1323.54 709.45"/>
        <path class="cls-1" d="M1414.8,718.32c-2.1-3.23-4.73-5.55-8.29-8.32l8.91-9.03-.62,17.35Z"/>
        <polygon class="cls-1" points="1379.09 718.05 1370.52 709.58 1379.3 701.55 1379.09 718.05"/>
        <polygon class="cls-1" points="1154.57 696.45 1146.49 704.64 1138.56 696.46 1154.57 696.45"/>
        <path class="cls-1" d="M1336.82,696.38l-8.21,8.33-8.43-8.37c6.2-.76,11.33-.64,16.64.04Z"/>
        <path class="cls-1" d="M1177.63,709.53l-7.6,8.46c-1.84-5.43-1-10.02-.78-15.31,3.93,1.44,4.56,3.09,8.38,6.85Z"/>
        <path class="cls-1" d="M1196.92,717.01c-4.55-2.45-5.88-5.1-8.34-7.54l7.55-8.3c1.99,5.62,1.4,10.29.79,15.84Z"/>
        <polygon class="cls-1" points="1159.93 717.76 1151.46 709.95 1160.59 700.77 1159.93 717.76"/>
        <polygon class="cls-1" points="1447.33 723.21 1430.47 723.17 1438.62 714.71 1447.33 723.21"/>
        <polygon class="cls-1" points="1300.44 696.57 1292.59 704.69 1284.01 696.09 1300.44 696.57"/>
        <path class="cls-1" d="M1518.53,696.79c-1.46,3.12-4.84,4.68-8.08,7.79l-6.71-6.94c4.06-2.38,8.23-2.72,14.79-.85Z"/>
        <path class="cls-1" d="M1268.91,716.3c-3.4-1.46-5.44-4.04-8.4-6.51l9.01-8.97c1.19,5.43.45,7.99-.62,15.48Z"/>
        <path class="cls-1" d="M1141.34,709.28c-2.38,2.89-4.05,6-8.85,6.64l.22-15.04,8.63,8.39Z"/>
        <path class="cls-1" d="M1451.99,716.47c-4.28-1.43-5.24-3.67-8.33-6.67l8.68-8.14-.35,14.8Z"/>
        <path class="cls-1" d="M1469.43,709.53c-2.29,2.84-4.21,5.76-8.71,6.95l.19-14.92,8.52,7.97Z"/>
        <path class="cls-1" d="M1505.92,709.43c-2.25,2.27-4.2,5.14-8.63,7.56l-.55-15.29,9.17,7.73Z"/>
        <path class="cls-1" d="M1488.42,716.44c-2.94-.65-6.09-3.25-6.95-6.2.21-3.69,4.3-6.54,7.04-9.2l-.09,15.39Z"/>
        <path class="cls-1" d="M1337.43,723.34c-5.9.52-9.68.49-15.44-.82,1.17-3.42,3.88-4.97,6.24-7.72l9.2,8.55Z"/>
        <path class="cls-1" d="M1190.69,723.32c-5.43.48-9.08.57-14.61-.51-.24-3.16,2.36-4.73,5.79-7.64,3,1.11,5.57,3.45,8.82,8.16Z"/>
        <path class="cls-1" d="M1155.19,723.32c-5.41.27-9.46.63-14.74-.79-.28-2.68,5.07-8.57,6.83-6.87l7.91,7.66Z"/>
        <path class="cls-1" d="M1117.76,721.67c-4.39,2.61-8.38,2.23-14.75,1.36l7.85-8.68,6.89,7.32Z"/>
        <path class="cls-1" d="M1081.98,723.48c-5.48.29-9.21.67-15.01-.88,1.18-3.56,3.91-5,6.26-7.78,3.04,2.26,5.54,3.79,8.75,8.67Z"/>
        <path class="cls-1" d="M1068.4,709.36c-1.91,2.3-3.98,4.83-7.3,6.91-2.42-5.16-1.68-9.3-1.29-15.49l8.59,8.57Z"/>
        <path class="cls-1" d="M1482.68,696.46l-7.77,8.26-7.01-6.98c5.16-2.81,9.85-1.91,14.78-1.28Z"/>
        <path class="cls-1" d="M1445.87,697.41l-7.17,7.3c-2.9-2.54-5.23-3.41-6.93-7.52,4.61-1.75,8.35-2.27,14.1.22Z"/>
        <path class="cls-1" d="M1518.98,723.48l-15.04-.83c.99-3.66,3.84-5.02,6.13-7.71,3.05,2.29,5.58,3.55,8.91,8.54Z"/>
        <path class="cls-1" d="M1482.69,723c-5.24.6-9.66,1.48-15.06-1.4,2.72-2.57,4.61-3.78,6.85-7.38l8.21,8.78Z"/>
        <path class="cls-1" d="M1190.4,696.7c-1,1.93-4.36,5.71-7.21,6.02-3.38.37-7-3.5-7.41-6.68l14.62.66Z"/>
        <path class="cls-1" d="M1524.13,718.29c-2.6-4.12-3.67-5.85-7.66-8.18,2.59-2.8,4.17-5.32,8.71-7.73.63,5.79.64,9.61-1.05,15.91Z"/>
        <path class="cls-1" d="M1561.29,715.98c-4.42-.47-5.66-3.08-8.77-6.21l8.71-8.53.05,14.74Z"/>
        <path class="cls-1" d="M1232.89,716.02c-3.68-.8-5.16-3.5-8.57-6.36l8.95-8.65-.38,15.01Z"/>
        <path class="cls-1" d="M1250.34,709.36l-6.7,7.04c-3.62-5.02-2.73-10.69-1.69-15.29l8.39,8.25Z"/>
        <path class="cls-1" d="M1305.93,716c-3.83-.73-5.22-3.38-8.38-6.31l8.56-8.09c.43,4.15.85,7.67-.17,14.4Z"/>
        <path class="cls-1" d="M1341.99,716.39c-3.25-.77-4.7-2.8-7.4-6.39,1.58-3.41,4.29-5.75,7.57-8.47l-.18,14.86Z"/>
        <path class="cls-1" d="M1553.76,696.62c-.1,2.96-3.77,6.69-6.93,6.38-3.25-.65-5.76-4.72-7.96-6.86,5.25-.42,8.68-.73,14.89.48Z"/>
        <path class="cls-1" d="M1086.78,717.57l-7.35-8.95,7.81-7.95c.67,6.2.91,9.99-.46,16.9Z"/>
        <path class="cls-1" d="M1371.97,697.13c-.4,2.38-4.11,5.86-7.26,5.76-1.99-.06-5.21-3.64-7.76-6.42,3.91-.74,8.38-1.1,15.02.66Z"/>
        <path class="cls-1" d="M1553.38,721.67c-2.54,3.12-10,2.27-13.25.96,2.3-3.46,4.43-5.32,6.06-6.27,1.98-1.15,7.15,2.36,7.19,5.31Z"/>
        <path class="cls-1" d="M1372.33,721.9c-4.84,2.51-9.34,1.77-15.03,1.39,1.63-3.2,4.6-5.73,7.82-7.21,1.98.57,5.25,3.27,7.22,5.82Z"/>
        <path class="cls-1" d="M1123.59,716.78l-8.13-7.28,8.49-7.2c.7,4.8,1.07,7.97-.37,14.48Z"/>
        <path class="cls-1" d="M1225.63,696.51c.37,2.63-4.1,7.03-6.61,6.35-3.74-1.01-5.85-4.49-8.07-6.82l14.68.47Z"/>
        <path class="cls-1" d="M1541.93,709.3l-7.66,8.66c-1.71-6.23-1.66-11.73.05-16.86l7.61,8.2Z"/>
        <path class="cls-1" d="M1287.21,709.04l-8.14,8.94c-1.08-6.18-1.17-10.29-.28-17.18l8.42,8.24Z"/>
        <polygon class="cls-1" points="1082.14 696.41 1074.22 703.74 1066.16 696.07 1082.14 696.41"/>
        <path class="cls-1" d="M1263.88,696.52c-2.13,1.84-5.08,6.8-9.08,5.86-1.76-.41-4.4-3.36-6.67-5.96,4.18-1.08,8.34-.94,15.75.1Z"/>
        <path class="cls-1" d="M1299.33,721.74c-4.19,2.6-8.79,2.77-13.35-.09l6.54-6.8,6.8,6.89Z"/>
        <path class="cls-1" d="M1212.73,708.72c.06,2.36-3.79,6.67-6.86,7.73-1.01-5.55-.9-9.77-.04-15.19,2.17,2.12,5.27,3.45,6.89,7.46Z"/>
        <path class="cls-1" d="M1226.49,721.81c-4.78,2.01-8.84,2.07-13.78-.02l6.71-7,7.07,7.02Z"/>
        <path class="cls-1" d="M1389.95,715.89c-2.81-1.6-3.85-7.68-.87-11.87,1.22-1.21,4.2,1.77,4.96,3.18,1.26,2.35.9,5.26-4.09,8.69Z"/>
        <path class="cls-1" d="M1406.86,697.25c1.64,1.38-3.26,5.86-5.4,5.91s-6.83-4.33-5.36-5.89c1.93-2.05,7.51-2.76,10.76-.01Z"/>
        <polygon class="cls-1" points="1264.32 723.45 1248.61 723.24 1255.89 715.1 1264.32 723.45"/>
        <path class="cls-1" d="M1747.87,713.94c1.86-2.29,3.73-.36,4.47.34,1.51,1.46.7,2.37-.34,3.37-.93.9-2.47,2.38-3.56,2.04-1.55-.49-2.04-3.94-.57-5.75Z"/>
        <path class="cls-1" d="M1763.81,720.94c-.56,2.74-5.72,2.73-8.1,1.18-1.13-.73-.55-1.53.24-1.91l3.27-1.56,2.38,1.21c.42.22,2.33.5,2.21,1.08Z"/>
        <path class="cls-1" d="M1717.39,713.46c2.28-1.17,3.37,1.09,3.53,2.02.26,1.55-.01,2.52-1.65,3.57-1.11.72-2.38-.02-2.74-.97-.51-1.38-1.1-3.62.86-4.62Z"/>
        <path class="cls-1" d="M1768.72,713.14c1.65-.49,2.99,1.08,2.96,2.3-.03,1.09-.36,3.01-1.68,3.66s-2.31-.38-2.95-1.09c-1.62-1.78-.71-4.16,1.68-4.86Z"/>
        <path class="cls-1" d="M1794.13,720.94c-1.18,3.08-6.7,4.22-8.81,1.77.8-2.1,4.65-4.46,8.81-1.77Z"/>
        <path class="cls-1" d="M1707.17,719.2c-1.42.06-2.31-2.47-2.44-3.52s.77-2.4,2.43-3.01c.97-.36,2.32,1.84,2.23,3-.08,1,.74,3.41-2.22,3.53Z"/>
        <path class="cls-1" d="M1686,713.85c1.74-1.6,2.98.86,3.81,1.47,1.13.83,1.37,2.29.38,2.98-1.91,1.34-2.99,1.74-3.86,1.37-1.1-.46-2.18-4.11-.33-5.82Z"/>
        <path class="cls-1" d="M1783.86,717.22c-.21.88-2.85,2.54-3.72,2.44-1.35-.15-.77-3.52-.96-4.39-.25-1.18.19-3.31,2.09-1.89.8.6,2.92,2.46,2.59,3.84Z"/>
        <path class="cls-1" d="M1800.03,719.56c-2.05.18-4.53-2.13-3.71-4.2.56-1.41,2.48-3.08,3.94-2.32-.52,2.18-.53,4.65-.22,6.52Z"/>
        <path class="cls-1" d="M1739.76,719.46c-3.25-.29-3.95-2.9-3.5-4.05.36-.93,1.69-2.25,3.41-2.98.53,3.12.38,4.81.08,7.04Z"/>
        <path class="cls-1" d="M340.87,887.73l-115.63-.58c-8.29,5.15-13.24,12.64-21.47,19.75l-9.26-80.01c-.17-1.44-.02-3.92.4-4.67.7-1.24,3.36-1.54,5.68-.62l82.99,32.94,57.49,23.09c.91,3.84.87,7.42-.19,10.09Z"/>
        <polygon class="cls-1" points="171.5 908.38 152.02 895.97 81.9 895.7 131.91 857.57 181.14 821.63 171.5 908.38"/>
        <path class="cls-1" d="M240.06,831.36c7.58-1.09,15.04,1.94,23.07,3.94l79.69,19.88c-.45,5.84.64,11.01-1.36,16.88l-101.39-40.7Z"/>
        <path class="cls-1" d="M75.54,894.74c-10.13,1.94-19.79,1.26-31.34.51l98.61-53.9-67.27,53.39Z"/>
        <path class="cls-1" d="M447.92,1000.35c0,1.83-6.39,1.91-6.79.53l-.3-69.04c-.01-2.53-.1-4.8,1.87-6.36,1.06-.84,4.25-.94,5.13,1.09l.09,73.77Z"/>
        <polygon class="cls-1" points="457.07 886.15 406.93 887.22 406.82 872.18 457.07 886.15"/>
        <path class="cls-1" d="M215.32,935.07l-18.28.59c-.3-3.69-1.17-7.79.6-11.05,1.35-2.5,9.26-2.54,11.48-.77,2.5,2,4.97,5.96,6.21,11.23Z"/>
        <path class="cls-1" d="M568.07,909.25c-4.84,2.64-10.37,2.62-13.47.3-2.69-2.02-2.14-8.6.91-11.64l12.56,11.34Z"/>
        <path class="cls-1" d="M208.11,910.96c2.23-3.89,8.38-9.02,12.76-12.51,2.73,3.45,2.52,7.67,1.13,11.91l-13.89.6Z"/>
        <path class="cls-1" d="M190.89,872.62l-7.95,5.32c-1.14-4.18-.4-8.8,1.63-12.24l6.31,6.92Z"/>
        <path class="cls-1" d="M192.13,1228.41c-.11,2.36-2.9,4.41-4.16,4.48-1.57.08-4.66-1.9-5.4-4.05.49-2.78,8.13-3.26,9.55-.43Z"/>
        <path class="cls-1" d="M195.12,1298.72c-3.12,1.49-7.26,1.19-12.44,1.5-.86-3.33,2.15-4.49,3.44-5.45,2.82-2.1,5.47-1.33,9,3.96Z"/>
        <path class="cls-1" d="M194.41,1272.12c-3.39,1.61-8.81,1.46-12.7.35l5.2-4.63c1.94-1.72,4.49.87,7.5,4.28Z"/>
        <path class="cls-1" d="M193.72,886.84l-10.54-.49,9.36-8.98c1.19,3.66,1.38,6.04,1.18,9.48Z"/>
        <path class="cls-1" d="M193.27,1247.09c-3.87,1.38-7.71,1.94-11.53-.65,2.89-1.93,4.3-2.17,6.3-5.68,1.69,1.6,3.07,2.29,5.24,6.33Z"/>
        <path class="cls-1" d="M192.45,1168.98c-2.07,1.99-7.65,2.08-9.77.02,2.64-2.5,3.08-4.32,4.07-4.68s3.45,1.28,5.7,4.66Z"/>
        <path class="cls-1" d="M193.51,1118.77c-3.51,1.58-7.87,1.38-11.67,0,2.39-2.26,3.94-3.91,5.14-4.42,1.93-.82,4.46,1.07,6.53,4.42Z"/>
        <path class="cls-1" d="M192.49,1048.15c-.7,4.54-3.74,6.03-5.71,5.57-2.33-.54-3.61-4.49-1.4-5.28,2.6-.93,5.48-.29,7.12-.29Z"/>
        <path class="cls-1" d="M197.03,985.72c-1.98,1.46-4.77-2.09-3.53-3.78.9-1.21.81-4.7,3.95-4.27,1.22,2.09,1.71,6.48-.42,8.05Z"/>
        <path class="cls-1" d="M191.52,1074.5c.74,1.38-2.08,3.6-3.13,3.95-1.5.51-4.99-1.68-4.44-4.41.43-1.8,6.12-2.23,7.56.45Z"/>
        <path class="cls-1" d="M192.54,1252.45c-.72,3.65-3,4.95-4.32,5.23-2.14.45-5.15-2.54-3.97-4.51,2.18-1.19,5.99-.83,8.28-.72Z"/>
        <path class="cls-1" d="M192.11,1017.68c-2.32,1.32-8.13,1.2-10.57-.33,2.87-2.04,4.29-2.71,5.58-4.33,1.09-1.37,5.33,1.33,4.99,4.66Z"/>
        <path class="cls-1" d="M193.12,1093.48c-4.14.51-7.04,1.34-11.83-.99,2.93-1.48,4.92-1.58,6.86-5.35,1.62,1.3,3.35,1.93,4.97,6.34Z"/>
        <path class="cls-1" d="M187.55,1145.35c-2.57-.09-3.45-2.71-2.55-3.26,2.05-1.23,3.79-2.22,4.89-2.01.88.16,2.24,1.61,2.31,2.66.08,1.21-2.45,2.69-4.65,2.61Z"/>
        <path class="cls-1" d="M186.08,1150.27c1.45-.67,3.55-.67,5.05.22.82.49.71,2.58-1.13,3.72-1.12.7-2.04,1.23-3.92-.05-1.07-.73-3.04-2.48,0-3.89Z"/>
        <path class="cls-1" d="M184.4,910.44c-2.51-.47-1.99-2.93-.33-3.85.9-.5,1.28-3.06,3.68-1.32.8.58,3.15,2.54,2.69,3.16-.74,1-3.48,2.49-6.04,2.01Z"/>
        <path class="cls-1" d="M184.44,1262.34l-5.99,5.3c-.82-4.73-.82-8.07.51-11.54,1.18,2.58.9,4.1,5.48,6.24Z"/>
        <path class="cls-1" d="M192.68,1175.89c-1.18,3.38-3.11,4.42-4.4,5.27-1.39.91-4.9-2.08-4.2-3.19,1.84-2.92,5.89-2.93,8.61-2.07Z"/>
        <path class="cls-1" d="M179.03,1038.47c-1.19-1.32-1.92-5.9.52-7.85,1.78-1.43,3.67.76,3.76,1.99.12,1.66-.4,3.97-4.28,5.86Z"/>
        <path class="cls-1" d="M193.36,1125.35c-1.42,1.76-3.56,4.59-5.04,5.12s-5.25-3.95-4.18-5.01c2.57-1.2,5.58-1.12,9.22-.11Z"/>
        <path class="cls-1" d="M191.87,1042.76c-2.29,1.45-5.48.42-7.99-.74.45-1.4,3-4.64,4.43-4.78,1.69-.17,4.98,4.59,3.56,5.52Z"/>
        <path class="cls-1" d="M178.42,1081.19c1.85-2.55,3.88-.25,4.49.58,1.05,1.4,1.02,2.84-.12,3.82-.78.67-2.75,1.84-3.76,1.61-1.27-.29-2.13-3.92-.62-6.01Z"/>
        <path class="cls-1" d="M192.42,992.07c-2.85.43-4.83.82-9.03-.23,1.04-2.32,2.73-3.98,3.96-4.93s4.19,1.67,5.08,5.16Z"/>
        <path class="cls-1" d="M191.23,1201.92c-.15,2.92-1.25,4.46-3.45,5.96-1.68-3.89-3.71-4.1-6.34-5.28,3.92-1.59,6.39-1.09,9.79-.67Z"/>
        <path class="cls-1" d="M413.08,899.99c2.29-2.82,3.24-.15,3.93.54,1.65,1.67,1.77,2.26.35,3.62-1.53,1.47-2.35,1.33-3.35.66-1.51-1.02-2.21-3.25-.93-4.82Z"/>
        <path class="cls-1" d="M183.19,1058.71c.82,3.2-3.1,3.78-4.03,2.64-1-1.22-1.62-3.38-.73-6.93,1.24-.34,4.11,1.74,4.77,4.29Z"/>
        <path class="cls-1" d="M195.93,1293.51c-1.03-1.31-3.09-3.51-2.84-4.47.33-1.28,2.24-3.7,3.21-4.69,3.64,3.23,2.42,7.77-.37,9.17Z"/>
        <path class="cls-1" d="M514,893.1c1.76-.66,3.13-.26,4.51,1.08.82.8.44,2.12-.91,2.85-.85.46-2.51.67-3.91.3-1.22-.33-2.41-3.21.31-4.22Z"/>
        <path class="cls-1" d="M483.86,899c1.74-.96,3.16,1.25,3.35,2.21.29,1.43-.18,2.59-1.54,3.63-1.17.88-2.6.07-2.83-.9s-.92-3.87,1.02-4.94Z"/>
        <path class="cls-1" d="M468.74,911.31c-1.51-.35-2.28-1.08-2.98-1.69-.79-.68.17-3.11,1.21-3.06l3.57.17c.65.03,1.71,1.29,1.63,1.89-.14,1.03-1.26,3.19-3.43,2.68Z"/>
        <path class="cls-1" d="M306.11,906c.91-.43,3.21.88,4.16,1.63,1.25.99.02,2.07-.88,2.73-1.53,1.11-2.41,1.16-4.04.16-1.54-.95-2.26-3.1.77-4.52Z"/>
        <path class="cls-1" d="M427.25,910.7c-3.39.86-6.26.79-11.11.23.93-2.21,2.96-1.91,3.83-2.53,1.64-1.17,3.61-1.02,7.28,2.29Z"/>
        <path class="cls-1" d="M469.68,897.05c-2.52,1.42-3.37-.32-3.87-.8-.9-.87-.89-1.31-.08-2.17s1.83-1.12,3.49-.69c3.37-.94,3.88,3.49.46,3.66Z"/>
        <path class="cls-1" d="M185.95,998.18c1.56-.72,3.5-.3,4.48.83.6.69.72,2.19-.76,3.24-.99.71-1.75.55-3.65-.16-1.38-.51-2.93-2.58-.07-3.91Z"/>
        <path class="cls-1" d="M451.84,899.22c2.84-1.18,2.84,1.39,2.93,2.28.18,1.72.05,2.96-1.01,3.41-1.99.84-2.47-.61-3.06-1.27-.75-.83-.98-3.54,1.15-4.42Z"/>
        <path class="cls-1" d="M441.34,903.69c-2.59,2.56-3.5-.1-3.72-1.34-.39-2.29.09-3.55,2.35-3.39.98.07,2.7,3.41,1.36,4.73Z"/>
        <path class="cls-1" d="M286.28,894.3c-.21,2.88-1.96,3.06-2.63,3.3-1.55.57-4.54-.67-3.11-3.24,1.09-1.96,5.83-1.36,5.74-.07Z"/>
        <path class="cls-1" d="M238.47,896.32l-5.28,1.41c.07-4.91,2.38-4.31,3.66-4.8,2.56-.98,4.31,2.67,1.62,3.39Z"/>
        <path class="cls-1" d="M240.06,831.36c-3.67-.52-6.88-2-11.36-3.58,3.41-2.18,9.67-1.01,11.36,3.58Z"/>
        <path class="cls-1" d="M193.18,1306.14c-3.4,1.31-6.99.73-10.38.66-.94-.64-1.07-1.37-.94-1.02,3.23-3.84,7.01-.35,10.17-.63.65.43,1.11.86,1.15.99Z"/>
        <path class="cls-1" d="M496.49,910.41c-.41,1.63-7.13,1.78-7.11-.94.03-3.18,6.34-3.05,7.11.94Z"/>
        <path class="cls-1" d="M154.89,906.14c.21-1.04,3.54-.55,4.37.1.72.57,2.16,2.29,1.18,2.78l-3.9,1.92c-.81.4-2.02-2.91-1.64-4.8Z"/>
        <path class="cls-1" d="M323.03,898.44c.58-.25,2.6.35,2.57.94-.06,1.21-.14,3.24-.76,3.96-1.48,1.69-3.55.87-3.66-.86-.08-1.36-.4-3.07,1.85-4.04Z"/>
        <path class="cls-1" d="M292.3,905.09c-3.27-.25-3.95-2.99-3.51-4.05.38-.92,1.69-2.26,3.42-3,.52,3.13.38,4.81.09,7.04Z"/>
        <path class="cls-1" d="M521.88,898.25c1.79-.94,4.02,4.35,2.12,5.75-1.52,1.11-3.12-.12-3.94-1.67-.62-1.17-.84-2.68,1.82-4.08Z"/>
        <path class="cls-1" d="M339.16,905.08c-3.25-.28-3.94-2.92-3.5-4.05.36-.92,1.69-2.26,3.42-2.99.53,3.13.38,4.81.08,7.04Z"/>
        <path class="cls-1" d="M333.09,892.93c.71.88-1.26,3.13-2.25,3.27-1.35.19-3.18-.39-4.53-2.92.73-.72,3.32-1.47,6.78-.34Z"/>
        <path class="cls-1" d="M194.56,903.47c-1.73-1.74-2.66-3.57-3-4.42s2.03-2.72,3.08-2.75c.61,2.9.6,4.4-.08,7.18Z"/>
        <path class="cls-1" d="M253.37,898.41c1.37-.4,2.3,1.09,2.71,1.61,1,1.31-.15,2.45-.83,3.19-1.57,1.72-3.06.37-3.56-.56-.86-1.59-.52-3.6,1.68-4.23Z"/>
        <path class="cls-1" d="M266.66,899.46c1.35-1.82,2.22.03,2.74.65.86,1.03.63,3.43-.41,3.71-2.18.59-4.23-1.79-2.33-4.37Z"/>
        <path class="cls-1" d="M459.8,900.38c1.64-1.88,5.13,1.89,4.92,2.41-.62,1.53-2.06.92-2.75,1.07-1.83.39-3.9-1.5-2.17-3.49Z"/>
        <path class="cls-1" d="M298.5,899.48c1.37-1.91,2.26.04,2.73.61.81.99.87,3.44-.39,3.75-2.22.56-4.15-1.84-2.34-4.36Z"/>
        <path class="cls-1" d="M305.77,892.75c1.46-.53,2.52.45,2.94,1.1.97,1.53.12,2.39-1.13,3.39-1.38,1.1-2.22.5-3.16-.63-1.1-1.31-.81-3.08,1.36-3.86Z"/>
        <path class="cls-1" d="M184.56,893.11c.03-.63,2.27-1.12,3.76-.67.62.18,1.11,1.11.27,1.86-.45.4-1.36,1.76-1.99,1.81s-2.12-1.34-2.03-3Z"/>
        <path class="cls-1" d="M180.07,899.7c1.34-2.32,2.51-.28,2.84.18.96,1.37.25,2.21-1.02,3.14s-3.24-.87-1.82-3.32Z"/>
        <path class="cls-1" d="M228.81,899.7c1.34-2.32,2.51-.28,2.84.18.96,1.37.25,2.21-1.02,3.14s-3.24-.87-1.82-3.32Z"/>
        <path class="cls-1" d="M446.22,910.69c-1.46,1.07-3.03-1.03-1.86-2.22l2.9-2.92c1.17,1.1,1.49,3.28-1.04,5.14Z"/>
        <path class="cls-1" d="M717.1,445.61l-273.04.37-38.61,38.14c-2.87-5.1-2.74-9.77-3.32-14.8l-17.62-153.06,28.71,9.48,237.61,93.71,66.26,26.17Z"/>
        <polygon class="cls-1" points="309.29 463.36 169.07 463 287.67 374.08 364.41 318.1 344.08 486.9 309.29 463.36"/>
        <path class="cls-1" d="M742.26,445.83l-295.48-116.12-4.36-.46c-1.29-.14-2.13-2.51-.82-2.93,2.25-.71,3.84-.32,5.31,1.44l460.97,117.18-165.61.89Z"/>
        <polygon class="cls-1" points="159.15 460.7 100.86 460.95 311.75 344.74 159.15 460.7"/>
        <path class="cls-1" d="M877.79,661.67c-3.21,2.54-8.7,1.37-13.09-.09l-.1-147.58,13.1-.32.09,147.99Z"/>
        <path class="cls-1" d="M429.71,536.89c-12.5,2.22-24.46,1.16-37.19.69-1.07-8.75-1.19-16.51-.04-25.34l25.18.22,12.06,24.44Z"/>
        <polygon class="cls-1" points="381.38 416.23 363.02 434.43 366.93 400.86 381.38 416.23"/>
        <path class="cls-1" d="M386.51,445.44c-6.46.13-12.51,1-21.15-.76l19.44-18.47c1.79,6.75,1.52,11.46,1.71,19.23Z"/>
        <path class="cls-1" d="M394.14,1096.49l-12.68-11.29,12.45-13.08c1.65,8.31,1.48,14.11.23,24.37Z"/>
        <path class="cls-1" d="M387.09,927.23c-3.89,6.09-7.45,8.33-12.23,12.82l-13.53-12,25.76-.82Z"/>
        <path class="cls-1" d="M386.42,963.94c-8.54,1.66-16.07,1.67-25.14-.22l12.71-11.52c4.8,2.62,7.96,5.7,12.43,11.74Z"/>
        <polygon class="cls-1" points="368.15 1131.07 354.76 1144.14 355.53 1119.23 368.15 1131.07"/>
        <path class="cls-1" d="M386.66,733.74l-24.28-.02c3.74-4.72,8.04-9.68,12.61-10.97,4.52,1.12,8.63,6.23,11.67,10.99Z"/>
        <path class="cls-1" d="M394.54,773.05c-5.94-3.89-8.91-6.77-13.22-11.64l12.64-11.95c1.62,8.49,1.11,14.42.58,23.59Z"/>
        <path class="cls-1" d="M394.09,819.18c-4.89-2.89-7.67-6.6-12.62-11.29l13-12.31c.57,7.9,1.26,13.46-.38,23.6Z"/>
        <path class="cls-1" d="M368.28,1224.01c-4.44,4.67-7.33,8.25-12.73,11.7l-.79-24.76,13.52,13.06Z"/>
        <path class="cls-1" d="M394.46,1234.65c-6.19-2.89-7.98-6.29-12.97-10.73l12.95-11.97.02,22.7Z"/>
        <path class="cls-1" d="M367.87,622.01c-3.86,5.09-6.66,8.66-12.42,12.31-1.26-7.98-1.21-14.39.15-23.01l12.27,10.69Z"/>
        <path class="cls-1" d="M386.39,1102.61c-8.3,2.06-15,1.08-23.23.67,3.64-5.63,7.26-8.53,11.98-12.07,3.98,3.53,7.3,5.8,11.25,11.4Z"/>
        <path class="cls-1" d="M394.15,1188.55c-4.91-2.24-7.79-6.66-12.37-11.11l12.82-12.01-.45,23.12Z"/>
        <path class="cls-1" d="M368.06,1177.22l-11.94,11.82c-2.27-8.27-1.6-15.34-.65-23.53l12.59,11.72Z"/>
        <path class="cls-1" d="M394.46,1281.91l-13.14-12.34c4.59-4.4,6.74-7.61,12.82-10.27,1.06,8.02,1.2,13.34.33,22.61Z"/>
        <path class="cls-1" d="M394.17,680.3c-5.06-2.53-7.75-6.5-12.72-11.27l13.19-11.83c.65,7.54.9,13.24-.47,23.1Z"/>
        <polygon class="cls-1" points="394.21 1050.49 381.76 1038.66 394.52 1026.56 394.21 1050.49"/>
        <path class="cls-1" d="M367.8,1037.94c-2.95,4.69-6.94,8.44-12.23,12.13l-.07-23.19c5.48,3.2,7.71,6.75,12.3,11.07Z"/>
        <path class="cls-1" d="M368.03,668.99c-4.11,4.91-7.11,8.14-12.21,11.73-1.79-8.9-1.07-14.87-.73-23.1,5.19,2.43,7.44,6.24,12.95,11.37Z"/>
        <path class="cls-1" d="M394.37,1143.07l-12.62-12.3,11.85-11.71c1.9,8.71,1.46,15.31.77,24.01Z"/>
        <polygon class="cls-1" points="368.27 714.51 354.97 727.22 355.45 702.92 368.27 714.51"/>
        <path class="cls-1" d="M394.37,726.84l-12.73-12.02c4.74-4.32,6.43-8.09,12.88-11.01l-.15,23.03Z"/>
        <path class="cls-1" d="M386.27,1241.4c-7.71,1.95-14.73,1.98-23.02-.01l11.78-11.34c4.31,3.09,7.56,5.6,11.25,11.35Z"/>
        <path class="cls-1" d="M386.36,686.66c-8.41,2.19-14.42,2.2-22.57.04,3.16-5.19,7.14-9.13,11.99-11.44l10.58,11.4Z"/>
        <path class="cls-1" d="M374.75,1264.15l-11.85-11.79c8.79-1.81,15.49-1.92,23.7.05l-11.84,11.74Z"/>
        <path class="cls-1" d="M394.03,1004.04l-12.4-12.12,12.42-12.21c1.43,8.75,1.72,14.32-.01,24.32Z"/>
        <path class="cls-1" d="M367.88,991.64l-11.71,11.8c-2.03-7.66-1.81-14.26-.45-22.89l12.16,11.08Z"/>
        <path class="cls-1" d="M368.61,761.27c-4.37,4.44-7.24,8.07-13.07,11.88-.94-8.68-1.85-15.06.63-23.63,3.98,4.97,5.7,7.44,12.44,11.74Z"/>
        <path class="cls-1" d="M394.04,634.48l-12.29-11.96,11.9-11.73c1.56,8.33,1.74,14.01.39,23.69Z"/>
        <polygon class="cls-1" points="368.62 944.9 354.86 958.43 355.47 934.36 368.62 944.9"/>
        <path class="cls-1" d="M386.91,742.93l-10.83,11.86c-4.64-.07-10.06-6.92-12.33-10.87,8.68-2.39,14.72-1.5,23.16-.99Z"/>
        <path class="cls-1" d="M387.16,1113.4l-11.21,11.72c-4.28-1.86-8.94-5.42-10.48-11.76l21.69.05Z"/>
        <path class="cls-1" d="M386.13,1020.84c-1.42,4.51-9.34,11.5-13.37,9.83-4.38-2.31-7.82-6.1-9.12-10.59l22.49.76Z"/>
        <polygon class="cls-1" points="368.24 1085.53 355.64 1095.85 354.84 1072.02 368.24 1085.53"/>
        <path class="cls-1" d="M386.15,824.81c-7.11,2.96-15.04,2.5-22.82.35l11.17-11.19,11.66,10.83Z"/>
        <path class="cls-1" d="M386.44,872.11c-8.54,2.64-15.69,1.22-25.22,1.23l11.58-10.98c5.2,2.73,9.05,4.61,13.64,9.76Z"/>
        <path class="cls-1" d="M386.29,1159.49c-2.06,5.07-7.32,6.96-11.43,11.31-5.59-3.05-10.86-9.49-10.84-9.2-.23-3.18,10.11-3.8,22.26-2.1Z"/>
        <path class="cls-1" d="M367.81,1270.09l-12.08,10.65c-1.65-8.59-1.47-14.42-.09-22.76l12.17,12.12Z"/>
        <path class="cls-1" d="M386.18,974.6l-11.82,11.37-10.94-11.07c7.33-2.55,14.45-2.46,22.76-.3Z"/>
        <path class="cls-1" d="M386.76,1057.05l-23.65.28c2.41-5.6,6.63-8.67,11.82-12.06l11.83,11.77Z"/>
        <path class="cls-1" d="M386.78,1194.51c-8.09,2.43-15.44,2.47-23.58.01l11.43-10.43,12.15,10.42Z"/>
        <path class="cls-1" d="M394.33,958.37c-5.14-4.34-6.85-8.21-13.19-11.49l12.6-13.77.59,25.27Z"/>
        <path class="cls-1" d="M388.05,1010.4l-26.86.08c5.43-4.14,8.99-7.04,13.63-12.34l13.23,12.25Z"/>
        <path class="cls-1" d="M367.69,807.44l-12.26,10.93c-.74-7.55-1.43-13.17.13-21.53l12.13,10.6Z"/>
        <path class="cls-1" d="M382.08,401.87c-6.16-2.7-9.23-8.18-12.52-12.88l9.42-10.66,3.1,23.54Z"/>
        <path class="cls-1" d="M386.65,1206.22l-11.91,11.49-13.04-11.65c8.27-1.61,14.28-2.3,24.95.16Z"/>
        <polygon class="cls-1" points="386.64 650.77 374.83 662.73 362.34 650.85 386.64 650.77"/>
        <path class="cls-1" d="M386.46,697.78l-10.62,10.07c-4.51-.03-9.62-6.08-12.58-11.1l23.19,1.04Z"/>
        <path class="cls-1" d="M386.39,779.46c-6.96.77-13.76,1.08-22.86-.41l11.12-10.67c4.65,3.34,6.5,5.04,11.74,11.08Z"/>
        <polygon class="cls-1" points="386.59 790.03 374.61 801.54 363.22 789.51 386.59 790.03"/>
        <path class="cls-1" d="M386.68,836.74l-11.73,11.63-11.88-12.04c8.29-.98,13.38-1.28,23.6.41Z"/>
        <polygon class="cls-1" points="387.02 1149.25 362.78 1149.43 375.11 1137.46 387.02 1149.25"/>
        <path class="cls-1" d="M386.31,641.25l-23.35-.28,11.92-11.56c4.39,3.97,7.55,5.95,11.43,11.84Z"/>
        <polygon class="cls-1" points="386.78 1067.31 374.83 1078.47 362.74 1066.64 386.78 1067.31"/>
        <polygon class="cls-1" points="393.48 864.03 381.9 854.85 393.42 842.08 393.48 864.03"/>
        <polygon class="cls-1" points="386.49 882 375.81 890.75 363.44 881.92 386.49 882"/>
        <path class="cls-1" d="M386.56,918.1c-7.26,1.17-14.43.76-22.83.05,2.15-3.25,5-3.38,9.6-3.46-2.33-1.87-2.75-2.6-1.03-4.84,1.32-1.73,1.82-2.01,3.73-.63,2.2,1.59,3.5,2.87.73,5.45,3.41.35,6.17-.67,9.79,3.43Z"/>
        <path class="cls-1" d="M383.11,455.47l-8.63,8.56c-3.21-2.29-5.27-4.55-8.05-9.1,5.67-.73,9.18-1.28,16.67.53Z"/>
        <path class="cls-1" d="M368.18,854.61c-4.28,4.63-7.49,1.71-10.88-.01s-3.37-7.64-1.23-11.49l12.11,11.5Z"/>
        <path class="cls-1" d="M390.61,480.63l-10.33-9.65,9.15-8.44c1.08,6.7,1.88,10.65,1.18,18.08Z"/>
        <path class="cls-1" d="M382.83,608.34c-1.93,3.32-5.36,4.97-8.6,8.13l-9.1-8.48c6.07-.65,9.86-1.12,17.7.35Z"/>
        <path class="cls-1" d="M365.38,470.04c.18,4.42-4.35,7.53-7.04,10.05-1.52-6.04-.43-11.25,2.2-17.01,1.38,1.14,4.7,3.32,4.85,6.96Z"/>
        <path class="cls-1" d="M380.98,1282.56c-4.85,1.34-8.11,1.22-13,.94-.16-3.59,3.21-4.74,5.13-5.82,2.84-1.59,6.32,1.57,7.87,4.88Z"/>
        <path class="cls-1" d="M355.18,859.19c.8-1.18,3.08-1.33,4.91.16,1.06.87,1.58,2.36-.16,3.92-.97.87-2.4,3.2-3.85,2.02-1.72-1.41-2.1-4.35-.91-6.1Z"/>
        <path class="cls-1" d="M371.95,371.02c-1.04-1.39-1.69-6.76-.2-8.26,1.97-1.87,3.79,1.11,4.26,2.78.34,1.2.25,3.08-4.06,5.48Z"/>
        <path class="cls-1" d="M390.51,900.59c2.05-.34,2.69,1.43,2.94,2.43.41,1.64-.24,3.16-1.36,3.7-2.34,1.14-2.14-1.05-2.94-1.64-1.85-1.38-2.04-3.93,1.36-4.49Z"/>
        <path class="cls-1" d="M359.96,897.89c-2.47,1.32-4.02-.23-3.84-2.32.06-.67-.16-2.34.88-2.77,1.91-.79,3.11,4.76,2.96,5.09Z"/>
        <path class="cls-1" d="M359.96,897.89c1.32.87,2.85,3.68,3.44,4.88.42.86-1.87,2.76-3.13,2.79l-.3-7.66Z"/>
        <polygon class="cls-1" points="1111.66 488.28 1078.73 488.81 1078.93 460.07 1111.66 488.28"/>
        <polygon class="cls-1" points="442.51 489.32 412.61 489.05 442.41 460.83 442.51 489.32"/>
        <polygon class="cls-1" points="666.14 484.04 654.68 473.26 666.5 462.33 666.14 484.04"/>
        <path class="cls-1" d="M330.5,488.5c-5.3.65-11.4,1.63-17.01-.3-2.85-.98-2.97-9.26-.18-11.92l17.19,12.22Z"/>
        <path class="cls-1" d="M384.45,487.71c-6.96,2.02-12.87,1.28-20.66.6,2.22-4.75,5.68-6.82,9.63-10.78l11.04,10.18Z"/>
        <path class="cls-1" d="M686.81,472.03c-3.23,4.43-5.62,7.51-10.87,10.6l-.48-21.09,11.36,10.49Z"/>
        <path class="cls-1" d="M641.91,472.81c-4.58,4.6-5.92,7.08-10.95,10.02l-.4-20.17c4.9,1.88,7.65,5.6,11.35,10.15Z"/>
        <path class="cls-1" d="M487.17,483.63l-11.99-10.88,10.6-10.04c2.5,7.6,1.25,13.51,1.39,20.92Z"/>
        <path class="cls-1" d="M532.09,482.69c-6.06-3.45-7.57-6.32-11.24-10.05,3.72-4.61,6.73-7.56,11.45-10.55l-.22,20.59Z"/>
        <path class="cls-1" d="M524.72,457.07c-2.32,5.03-7.05,6.52-10.05,9.66l-10.22-9.65c7.15-1.46,12.04-1.99,20.27,0Z"/>
        <path class="cls-1" d="M614.87,457.29l-10.43,9.74-10.14-9.2c6.14-2.89,12.89-2.6,20.57-.54Z"/>
        <path class="cls-1" d="M711.07,483.33l-10.55-10.83,10.27-10.13c1.7,7.64,1.66,11.88.27,20.95Z"/>
        <path class="cls-1" d="M576.22,483.21l-11.21-10.43,10.71-10.07c2.23,7.25,1.66,13.07.5,20.5Z"/>
        <path class="cls-1" d="M621.05,482.39l-10.31-8.95c2-3.86,5.57-7.78,10.25-10.15,1.89,7.11,1.81,11.73.06,19.09Z"/>
        <path class="cls-1" d="M693.57,465.59c-4.4-.83-7-5.58-9.54-7.32,6.75-2.92,13.04-2.76,19.4-1.42-1.89,3.88-6.45,9.38-9.86,8.74Z"/>
        <path class="cls-1" d="M658.48,489.42l-19.65.07c2.44-5.27,5.53-7.02,8.61-10.9,4.48,2.81,8.71,4.89,11.04,10.82Z"/>
        <path class="cls-1" d="M657.88,457c-2.21,4.82-6.35,5.89-9.97,9.46l-10.28-10.35,20.25.89Z"/>
        <path class="cls-1" d="M478.6,456.37c-2.82,5.59-6.43,8-9.85,9.97-3.62-4.03-6.93-4.75-9.26-9.43l19.1-.54Z"/>
        <path class="cls-1" d="M507.73,472.08c-2.05,3.94-4.91,7.04-9.46,9.66-2.33-7.77-1.69-13.48-1.03-20.54l10.48,10.87Z"/>
        <path class="cls-1" d="M479.93,489.33l-21.26-.06,10.74-10.7c3.69,3.18,6.76,5.27,10.52,10.76Z"/>
        <path class="cls-1" d="M703.76,489.12l-21.5-.29,11.57-8.89c4.17,0,7.99,5.95,9.92,9.17Z"/>
        <polygon class="cls-1" points="614.66 489.15 593.59 489.14 604.45 478.48 614.66 489.15"/>
        <path class="cls-1" d="M524.95,489.35l-20.89-.14,10.5-10.65c3.54,3.1,6.6,5.24,10.4,10.79Z"/>
        <path class="cls-1" d="M568.85,457.31c-2.61,2.67-5.01,6.12-8.73,7.47s-9.04-4.13-10.35-7.64c6.7-1.74,11.4-1.9,19.08.18Z"/>
        <path class="cls-1" d="M569.72,489.39l-21.29-.19,10.36-10.25c4.75,2.94,7.13,5.39,10.93,10.44Z"/>
        <polygon class="cls-1" points="462.13 471.9 451.88 484.31 451.79 462.12 462.13 471.9"/>
        <path class="cls-1" d="M552.38,472.74c-4.24,3.69-6.74,6.84-10.26,11.33l-.29-21.42,10.55,10.09Z"/>
        <path class="cls-1" d="M597.47,472.78l-10.42,10.04c-.32-8.19-.74-12.47-.54-20.9l10.96,10.87Z"/>
        <path class="cls-1" d="M303.45,478.75c1.53,3.53-.85,6.36-2.29,6.23-1.22-.11-2.88-1.77-4.21-3.01-1.41-1.31,2.33-4.07,4.24-3.98.27-3.2,3.97-1.55,2.26.77Z"/>
        <path class="cls-1" d="M275.96,477.03c1.19-.47,3.9,1.98,4.75,2.87,1.64,1.73-1.3,3.28-2.45,4.17-1.42,1.11-3.17.82-3.86-.34-1.34-2.26-1.19-5.61,1.56-6.71Z"/>
        <path class="cls-1" d="M188.16,484.64c-2.31-1.4-4.19-2.8-4.18-3.69s2.32-2.27,3.61-3.22c1.95-1.43,2.94.77,3.38,1.83.83,2-1.28,6.01-2.81,5.08Z"/>
        <path class="cls-1" d="M266.27,485.32c-4.11-1.45-5.02-2-7.85-4.15l7.8-5.61.05,9.76Z"/>
        <path class="cls-1" d="M238.42,476.94c1.32-.79,3.92,2.04,4.87,3,1.09,1.11-1.11,2.83-2.26,3.81-2.11,1.8-3.41,1.08-3.94-.06-1.06-2.27-1.27-5.2,1.33-6.75Z"/>
        <path class="cls-1" d="M200.93,477.05c1.28-.61,3.97,1.85,4.74,2.85,1.5,1.95-1.48,3.03-2.38,3.92-1.51,1.5-3.55,1.42-4.02.14-.87-2.39-1.02-5.65,1.65-6.91Z"/>
        <path class="cls-1" d="M227.8,485.66c-1.64-1.86-3.32-3.65-6.05-4.69l6.93-5.26c.53,3.56.86,5.09-.88,9.95Z"/>
        <path class="cls-1" d="M219.41,472.75c-.85,2.43-2.78,3.74-4.73,3.56-1.68-.15-3.54-1.14-6.61-3.09,3.6-1.22,6.71-.93,11.34-.47Z"/>
        <path class="cls-1" d="M165.55,477.53c.9-.73,6.37,3.03,3.9,4.57-2.22,1.38-3.06,1.8-3.94,1.41-1.39-.61-2.16-4.19.03-5.98Z"/>
        <path class="cls-1" d="M256.97,472.72c-1.06,2.64-2.84,3.62-4.8,3.62s-3.75-1.02-4.8-3.62h9.6Z"/>
        <path class="cls-1" d="M179.81,473.02c-.04,1.53-2.76,4.04-4.37,3.04s-3.45-1.64-5.12-3.01c3.41-.81,4.68-.97,9.49-.03Z"/>
        <polygon class="cls-1" points="934.93 484.03 923.57 472.43 935.23 460.9 934.93 484.03"/>
        <polygon class="cls-1" points="844.93 483.85 833.76 472.53 845.38 461.18 844.93 483.85"/>
        <polygon class="cls-1" points="755.08 483.57 744.38 472.41 755.38 461.15 755.08 483.57"/>
        <path class="cls-1" d="M889.92,483.16c-2.63-3.08-7.6-5.71-9.51-9.72-.46-4.27,5.51-9.15,9.94-10.41l-.43,20.13Z"/>
        <path class="cls-1" d="M1024.41,483.16l-11.14-10.72,10.62-11.51c1.22,8.08,1.14,13.98.52,22.23Z"/>
        <path class="cls-1" d="M972.52,456.69c-2.49,2.81-5.61,7.3-10.06,8.94-3.39,1.08-8.4-5.69-9.74-8.59,6.86-1.49,12.13-1.11,19.8-.35Z"/>
        <path class="cls-1" d="M731.79,472.83l-11.25,10.59c-.06-7.14-1.38-13.11,1.13-20.78l10.12,10.19Z"/>
        <path class="cls-1" d="M1068.68,482.62l-10.57-10.08,11.37-10.81c1.49,7.03,1.58,12.16-.8,20.89Z"/>
        <path class="cls-1" d="M820.15,472.3c.32,3.72-6.26,8.73-9.78,9.89l-.18-19.66c3.92,2.07,8.45,5.26,9.96,9.77Z"/>
        <path class="cls-1" d="M1045.41,472.77l-10.62,10.02c-1.3-7.95-1.27-12.59-.12-20.59l10.74,10.57Z"/>
        <path class="cls-1" d="M978.95,482.29l-10.39-9.96,10.13-9.54c2.32,6.41,2.53,11.58.26,19.5Z"/>
        <path class="cls-1" d="M748.79,457.41c-4.5,3.51-7.51,5.09-10.79,9.22l-10.78-10.42c7.63.19,12.67-1.22,21.57,1.2Z"/>
        <path class="cls-1" d="M792.87,457.03c-1.75,4.51-5.54,6.23-9.89,9.88l-9.61-10.23,19.5.35Z"/>
        <path class="cls-1" d="M776.77,472.33l-9.97,9.88c-2.29-6.77-2.47-12.71.01-19.55l9.96,9.67Z"/>
        <path class="cls-1" d="M866.9,471.63l-10.07,10.67c-2.49-6.82-2.54-12.81.09-19.79,3.53,3.5,4.98,5.95,9.99,9.13Z"/>
        <path class="cls-1" d="M837.84,456.53l-10.35,9.95-10.28-9.01c6.83-2.39,12.08-1.56,20.63-.94Z"/>
        <polygon class="cls-1" points="928.08 489.21 907 488.36 917.26 477.73 928.08 489.21"/>
        <path class="cls-1" d="M1061.43,487.62c-6.55,2.71-13.14,2.05-19.42.81,3.41-5.29,7.06-6.34,10.53-9.98l8.88,9.17Z"/>
        <path class="cls-1" d="M882.85,457.25c-2.11,4.42-6.84,5.99-10.21,9.15-3.28-3.23-6.29-4.72-9.19-9.69l19.39.53Z"/>
        <path class="cls-1" d="M928.07,456.53c-2.77,2.16-5.15,6.4-10.02,8.26-2.83.99-8.4-4.3-10.43-7.31,6.19-2.51,11.67-1.51,20.46-.95Z"/>
        <polygon class="cls-1" points="838.06 489.29 816.94 489.08 827.77 478.14 838.06 489.29"/>
        <polygon class="cls-1" points="973.21 489.02 952.28 488.99 962.78 478.11 973.21 489.02"/>
        <path class="cls-1" d="M793.48,489.08c-7.05.22-11.75.82-18.9-.75,1.55-4.61,5.11-6.96,8.6-9.78l10.29,10.53Z"/>
        <path class="cls-1" d="M1061.02,456.86c-1.22,3.8-6.31,8.44-11.02,7.97-3.02-1.01-6.12-5.05-7.38-7.88,6.31-1.36,10.77-1.43,18.4-.1Z"/>
        <path class="cls-1" d="M1016.55,457.24l-10.65,9.11c-3-3.48-6.47-5.04-8.23-9.54,6.55-1.33,11.72-1.67,18.88.43Z"/>
        <path class="cls-1" d="M748.29,489.25l-19.84-.03c2.55-4.73,5.57-6.86,9.24-10.66,3.6,3.07,6.68,4.91,10.61,10.69Z"/>
        <path class="cls-1" d="M1016.18,487.69c-6.3,2.44-11.82,1.54-19.48,1.13l10.62-10.46,8.86,9.33Z"/>
        <polygon class="cls-1" points="910.26 472.27 900.15 483.78 900.53 462.33 910.26 472.27"/>
        <path class="cls-1" d="M799.89,483.41l-9.55-10.86,10.26-10.51c.2,8.14,1.1,12.87-.71,21.37Z"/>
        <path class="cls-1" d="M956.21,473.57c-4.96,2.82-7.1,5.47-10.96,9.33l-.36-20.69,11.32,11.36Z"/>
        <polygon class="cls-1" points="1000.89 472.65 989.95 482.99 989.81 462.66 1000.89 472.65"/>
        <path class="cls-1" d="M878.54,485.34c-2.45,3.11-9.64,2.86-12.87,1.33,3.36-2.73,4.4-4.27,6.08-7.83,2.01.07,6.39,3.18,6.79,6.49Z"/>
        <path class="cls-1" d="M1278.41,1364.28c0,1.46-5.88,1.75-7.21.53l-.23-87.78c3.03-.53,4.93-.37,7.76.09l-.31,87.16Z"/>
        <path class="cls-1" d="M1568.78,1152.11c-5.07,1.56-9.17,1.01-14.68.95l.12-25.87,13.91-.34.65,25.26Z"/>
        <polygon class="cls-1" points="1569.07 1305.85 1554.16 1306.81 1554.25 1280.86 1568.65 1281.66 1569.07 1305.85"/>
        <path class="cls-1" d="M1569.1,1229.91h-14.73s0-24.36,0-24.36c4.5-1.9,9.12-1.52,14.36-.69l.37,25.05Z"/>
        <path class="cls-1" d="M1569.2,1267.55c-5.1,1.92-10.2,1.49-14.93.68l-.05-24.95,14.58.86.4,23.41Z"/>
        <path class="cls-1" d="M1278.76,1475.05c-2.26.95-4.85.91-7.86.46l.42-49.42c3.31-2.05,7.47-.37,7.46,2.3l-.03,46.66Z"/>
        <path class="cls-1" d="M1567.6,1191.54c-5.31.51-8.99.84-13.53-.65l.25-24.59,13.54-.16-.26,25.4Z"/>
        <path class="cls-1" d="M1278.78,1411.45c-2.36.9-4.83.86-7.83.37l.09-37.17c2.98-1.33,7.53.96,7.55,3.05l.19,33.75Z"/>
        <polygon class="cls-1" points="517.44 1107.94 483.42 1107.89 500.37 1092.35 517.44 1107.94"/>
        <polygon class="cls-1" points="494.77 1088.48 478.36 1102.49 478.19 1073.67 494.77 1088.48"/>
        <polygon class="cls-1" points="523 1102.87 506.96 1087.73 523.17 1073.46 523 1102.87"/>
        <polygon class="cls-1" points="729.51 879.13 714.76 891.3 714.48 836.14 747.29 864.3 729.51 879.13"/>
        <path class="cls-1" d="M1065.32,1114.16c-.75,2.5-9.73,2.37-9.72-.1l.09-25.86,10.57.31c-.23,8.59,1.57,17.29-.95,25.65Z"/>
        <path class="cls-1" d="M1066.34,1215.88l-10.62.89-.03-20.17c3.37-.58,5.9-.69,9.49-.21-.06,6.95-.58,12.63,1.16,19.49Z"/>
        <path class="cls-1" d="M1064.67,1181.83c-2.15,1.37-6.38,1-8.83,1.14l-.43-20.25c3.68-.52,6.08-.61,9.67-.02l-.41,19.12Z"/>
        <path class="cls-1" d="M1065.15,1148.84l-9.65.18-.04-20.03c3.51-.66,6.09-.67,9.41,0l.28,19.86Z"/>
        <path class="cls-1" d="M1065.13,1247.99l-9.35.56c-.31-5.5-1.09-11.09-.17-17.1,1.01-2.02,6.36-2.31,9.25-1.19l.26,17.73Z"/>
        <path class="cls-1" d="M456.78,1382.92c-1.28,1.68-5.92,1.42-7.86.36l1.04-23.48c1.42-1.41,6.89-.26,6.89,1.67l-.07,21.44Z"/>
        <path class="cls-1" d="M456.93,1345.81c-.29,1.92-4.55,2.9-7.14,1.96l-.24-22.51c3.21-.45,5.21.07,7.03.62.34,6.71,1.57,11.8.34,19.92Z"/>
        <path class="cls-1" d="M456.74,1413.39c-.89,1.58-6.79.55-6.78-1.17l.1-16.25c2.38-1.84,6.4-.86,6.69,1.24.7,5.1.64,11.23,0,16.18Z"/>
        <polygon class="cls-1" points="597.36 1155.09 537.11 1155.21 537 1119.87 597.04 1119.49 597.36 1155.09"/>
        <polygon class="cls-1" points="628.11 1137.08 611.28 1151.49 611.1 1124.32 628.11 1137.08"/>
        <polygon class="cls-1" points="649.44 1202.15 618.41 1203.32 635.06 1190.01 649.44 1202.15"/>
        <polygon class="cls-1" points="650.65 1166.86 634 1179.74 619.54 1167.29 650.65 1166.86"/>
        <path class="cls-1" d="M657.09,1149.15c-6.51-2.73-10.92-7.3-15.71-12.26l15.72-12v24.26Z"/>
        <path class="cls-1" d="M657.08,1197.28c-7.33-3.38-10.08-7.68-15.24-12.03l15.1-12.58.15,24.62Z"/>
        <path class="cls-1" d="M627.23,1185.21l-15.23,12.19c-1.4-8.16-1.14-14.83.23-23.65,6.18,2.03,10.15,6.12,15,11.46Z"/>
        <path class="cls-1" d="M648.89,1120.24l-14.38,11.86c-5.23-3.74-9.45-6.23-14.19-11.43l28.57-.43Z"/>
        <polygon class="cls-1" points="651.02 1155.66 619.87 1154.91 634.73 1142.41 651.02 1155.66"/>
        <polygon class="cls-1" points="516.29 1250.91 485.14 1251.42 501.19 1237.69 516.29 1250.91"/>
        <polygon class="cls-1" points="522.54 1245.26 507.37 1231.83 523.02 1219.76 522.54 1245.26"/>
        <path class="cls-1" d="M493.51,1232.71l-14.24,12.36c-1.86-9.26-1.24-15.98-1.04-25.31l15.28,12.95Z"/>
        <polygon class="cls-1" points="515.76 1215.68 500.63 1227.56 486.47 1215.75 515.76 1215.68"/>
        <path class="cls-1" d="M522.71,1149.63c-5.77-3.27-9.46-6.83-15.18-12.36l15.61-12.9-.43,25.26Z"/>
        <path class="cls-1" d="M493.85,1137.85l-13.64,11.96c-3.28-8.35-2.39-16-1.17-24.26,6.85,3.58,8.97,6.8,14.82,12.3Z"/>
        <path class="cls-1" d="M515.55,1154.78l-28.98,1.06c4.12-6.74,8.52-9.33,14.04-13.32l14.93,12.26Z"/>
        <path class="cls-1" d="M513.76,1120.92l-13.91,11.51-12.65-11.69c9.72-1.58,15.78-1.78,26.56.18Z"/>
        <polygon class="cls-1" points="517.71 1203.14 484.74 1203.32 501.03 1190.05 517.71 1203.14"/>
        <polygon class="cls-1" points="515.62 1167.68 500.61 1180.43 485.32 1167.44 515.62 1167.68"/>
        <path class="cls-1" d="M494.23,1184.89l-15.68,13.38.55-25.68c7.07,3.46,9.91,8,15.12,12.3Z"/>
        <path class="cls-1" d="M522.69,1196.46c-6.08-2.95-9.36-7-15.26-11.86l15.56-13.14-.3,25.01Z"/>
        <polygon class="cls-1" points="891.35 1059.53 890.97 1015.8 819.4 1015.62 819.07 996.06 928.36 995.61 927.91 1059.97 891.35 1059.53"/>
        <polygon class="cls-1" points="788.31 898.77 723.16 899.2 755.75 871.33 788.31 898.77"/>
        <path class="cls-1" d="M797.54,893.17c-11.6-10.75-21.57-19.2-34.04-28.9l34.3-28.53c-1.35,20.32-.28,36.9-.26,57.43Z"/>
        <polygon class="cls-1" points="982.41 947.09 949.78 972.87 949.57 922.01 982.41 947.09"/>
        <polygon class="cls-1" points="797.54 1051.84 765.51 1027.34 797.73 1000.76 797.54 1051.84"/>
        <polygon class="cls-1" points="981.82 1026.98 949.65 1052.71 949.23 1002.08 981.82 1026.98"/>
        <polygon class="cls-1" points="1024.99 1060.08 958.38 1060.01 991.51 1033.65 1024.99 1060.08"/>
        <polygon class="cls-1" points="747.32 1027.13 714.48 1052.73 714.54 1001.24 747.32 1027.13"/>
        <path class="cls-1" d="M797.33,973.58c-11.1-9.67-20.59-17.5-32.46-25.73l32.83-25.81-.36,51.54Z"/>
        <polygon class="cls-1" points="1032.61 1052.2 999.92 1027.44 1033.02 1001.06 1032.61 1052.2"/>
        <polygon class="cls-1" points="1032.78 972.9 1000.21 947.3 1033.09 921.67 1032.78 972.9"/>
        <polygon class="cls-1" points="747.21 947.15 714.43 973.48 714.28 921.62 747.21 947.15"/>
        <polygon class="cls-1" points="788.34 1059.27 722.96 1060.1 756.09 1034.08 788.34 1059.27"/>
        <path class="cls-1" d="M1005.07,979.43l-44.52-.92,31.11-24.61,32.35,25.42c-6.17.94-12.19.24-18.95.11Z"/>
        <polygon class="cls-1" points="1022.07 996.11 991.68 1020.46 959.39 995.77 1022.07 996.11"/>
        <polygon class="cls-1" points="785.87 996.15 756.02 1020.66 725.25 995.94 785.87 996.15"/>
        <polygon class="cls-1" points="786.82 978.77 725.34 978.44 755.82 954.05 786.82 978.77"/>
        <polygon class="cls-1" points="785.92 917.1 755.6 940.74 725.1 916.78 785.92 917.1"/>
        <polygon class="cls-1" points="1021.02 916.87 991.45 940.54 960.68 916.19 1021.02 916.87"/>
        <polygon class="cls-1" points="928.35 978.76 819.05 978.92 819.13 916.59 928.29 916.52 928.35 978.76"/>
      </g>
    </g>
  </g>
</svg>