<?xml version="1.0" encoding="UTF-8"?>
<svg id="Layer_2" data-name="Layer 2" xmlns="http://www.w3.org/2000/svg" viewBox="0 0 102 78.61" preserveAspectRatio="xMidYMid meet">
>
  <defs>
    <style>
      .cls-1 {
        fill: none;
        stroke: #000000;
        stroke-miterlimit: 10;
        stroke-width: 5px;
      }

      .cls-2 {
        opacity: .3;
      }

      .cls-3 {
        fill: #ffffff;
      }
    </style>
  </defs>
  <g id="Under_construction" data-name="Under construction">
    <g id="helmet">
      <g id="fill" class="cls-2">
        <path class="cls-3" d="M64.46,74.35c-10.35-1.51-17.24-1.67-27.66-.46-4.76.56-9.35,1.38-14.02,2.32-1.5.3-2.91.45-4.42.48s-3.02-.31-4.47-.89l-3.37-1.37c-.92-.37-1.63-1.02-2.42-1.61l-2.53-1.85c-2.57-1.88-4.61-3.8-4.58-7.13.02-2.34,1.73-3.18,3.87-3.81l1.87-15.29c.28-2.27.78-4.37,1.62-6.46.57-1.37,1.29-2.55,2.11-3.79.97-3.1,2.05-6.05,3.48-8.96,4.75-9.62,12.6-16.41,22.62-20.13.67-.25,1.29-2.18,2.17-2.46,4.65-1.44,9.43-2.07,14.32-1.92,4.24.13,8.32.92,12.26,2.35.7.25,1.32,2.2,1.96,2.46,8.99,3.62,16.3,9.85,20.84,18.46,1.38,2.61,2.42,5.25,3.38,8.04l1.13,3.26c.96,1.78,1.82,3.5,2.35,5.48.58,2.21.91,4.34,1.11,6.64l1.23,13.79c2.1.44,3.59,1.45,3.66,3.61.06,1.8-.61,3.32-1.83,4.62-.86.93-1.81,1.72-2.91,2.4l-5.25,3.25c-1.19.74-2.57.97-3.87,1.45-.97.35-1.92.64-2.95.73-2.37.2-4.59-.17-6.88-.73-4.27-1.03-8.48-1.84-12.84-2.48Z"/>
      </g>
      <g id="outline">
        <path class="cls-1" d="M64.46,74.35c-10.35-1.51-17.24-1.67-27.66-.46-4.76.56-9.35,1.38-14.02,2.32-1.5.3-2.91.45-4.42.48s-3.02-.31-4.47-.89l-3.37-1.37c-.92-.37-1.63-1.02-2.42-1.61l-2.53-1.85c-2.57-1.88-4.61-3.8-4.58-7.13.02-2.34,1.73-3.18,3.87-3.81l1.87-15.29c.28-2.27.78-4.37,1.62-6.46.57-1.37,1.29-2.55,2.11-3.79.97-3.1,2.05-6.05,3.48-8.96,4.75-9.62,12.6-16.41,22.62-20.13.67-.25,1.29-2.18,2.17-2.46,4.65-1.44,9.43-2.07,14.32-1.92,4.24.13,8.32.92,12.26,2.35.7.25,1.32,2.2,1.96,2.46,8.99,3.62,16.3,9.85,20.84,18.46,1.38,2.61,2.42,5.25,3.38,8.04l1.13,3.26c.96,1.78,1.82,3.5,2.35,5.48.58,2.21.91,4.34,1.11,6.64l1.23,13.79c2.1.44,3.59,1.45,3.66,3.61.06,1.8-.61,3.32-1.83,4.62-.86.93-1.81,1.72-2.91,2.4l-5.25,3.25c-1.19.74-2.57.97-3.87,1.45-.97.35-1.92.64-2.95.73-2.37.2-4.59-.17-6.88-.73-4.27-1.03-8.48-1.84-12.84-2.48Z"/>
      </g>
    </g>
  </g>
</svg>